<svg xmlns="http://www.w3.org/2000/svg" viewBox="10 10 250 350" width="250" height="350">
    <rect width="250" height="350" rx="25" ry="25" fill="white" y="10" x="10"/>
    <path fill="currentColor"
          d="M 49.224 25.909 L 220.825 25.909 C 231.621 25.909 240.373 33.99 240.373 43.957 L 240.373 104.887 C 236.086 80.262 224.114 61.285 204.77 52.575 C 159.786 32.324 91.968 75.264 53.295 148.483 C 41.132 171.51 33.301 194.789 29.676 216.512 L 29.676 43.957 C 29.676 33.99 38.428 25.909 49.224 25.909 Z M 240.373 326.349 C 240.373 336.315 231.621 344.396 220.825 344.396 L 49.224 344.396 C 38.428 344.396 29.676 336.315 29.676 326.349 L 29.676 268.397 C 34.389 291.571 46.161 309.371 64.717 317.727 C 109.701 337.978 177.519 295.039 216.193 221.82 C 229.029 197.521 237.041 172.941 240.373 150.203 L 240.373 326.349 Z"/>

    <svg xmlns="http://www.w3.org/2000/svg" viewBox="-40 -80 75 75" width="100" height="100">
        <path fill="currentColor"
              d="M 79.488 86.803 C 95.556 73.412 100.171 50.138 93.591 40.307 L 34.426 91.422 C 34.185 91.605 53.094 106.761 79.488 86.803 Z M 23.17 97.806 C 4.103 80.706 6.241 50.459 26.338 28.717 C 46.435 6.981 78.229 3.696 96.924 21.389 C 115.621 39.081 113.921 70.832 94.047 92.78 C 74.168 114.733 42.238 114.899 23.17 97.806 Z M 26.147 79.529 L 85.868 29.384 C 74.426 20.02 55.379 22.889 41.394 33.193 C 27.147 43.686 18.362 68.263 26.147 79.529 Z"/>
    </svg>
</svg>