<svg xmlns="http://www.w3.org/2000/svg" viewBox="10 10 250 350" width="250" height="350">
	<rect width="250" height="350" rx="25" ry="25" fill="white" y="10" x="10"/>
	<path
		d="M 49.224 25.909 L 220.825 25.909 C 231.621 25.909 240.373 33.99 240.373 43.957 L 240.373 104.887 C 236.086 80.262 224.114 61.285 204.77 52.575 C 159.786 32.324 91.968 75.264 53.295 148.483 C 41.132 171.51 33.301 194.789 29.676 216.512 L 29.676 43.957 C 29.676 33.99 38.428 25.909 49.224 25.909 Z M 240.373 326.349 C 240.373 336.315 231.621 344.396 220.825 344.396 L 49.224 344.396 C 38.428 344.396 29.676 336.315 29.676 326.349 L 29.676 268.397 C 34.389 291.571 46.161 309.371 64.717 317.727 C 109.701 337.978 177.519 295.039 216.193 221.82 C 229.029 197.521 237.041 172.941 240.373 150.203 L 240.373 326.349 Z"
		fill="currentColor"/>

	<svg xmlns="http://www.w3.org/2000/svg" viewBox="-40 -80 75 75" width="100" height="100" fill="currentColor">
		<path
			d="M 63.278 28.106 L 45.693 18.1 L 89.836 10 L 90.4 53.574 L 76.121 38.543 L 49.012 70.001 C 47.384 72.346 35.416 60.19 48.044 47 L 64.069 28.572 L 63.278 28.106 Z M 54.122 91.893 L 71.707 101.9 L 27.564 110 L 27 66.426 L 41.279 81.457 L 68.389 49.999 C 70.016 47.654 81.984 59.81 69.356 73 L 53.331 91.428 L 54.122 91.893 Z"/>
	</svg>
</svg>