<svg xmlns="http://www.w3.org/2000/svg" viewBox="79.508 12.705 250 350" width="250" height="350">
	<rect width="250" height="350" rx="25" ry="25" fill="var(--uno-card-background)" y="65.304" x="149.397" transform="matrix(1, 0, 0, 1, -69.888809, -52.599087)"></rect>
	<path fill="currentColor" d="M 188.621 81.213 L 360.222 81.213 C 371.018 81.213 379.77 89.294 379.77 99.261 L 379.77 160.191 C 375.483 135.566 363.511 116.589 344.167 107.879 C 299.183 87.628 231.365 130.568 192.692 203.787 C 180.529 226.814 172.698 250.093 169.073 271.816 L 169.073 99.261 C 169.073 89.294 177.825 81.213 188.621 81.213 Z M 379.77 381.653 C 379.77 391.619 371.018 399.7 360.222 399.7 L 188.621 399.7 C 177.825 399.7 169.073 391.619 169.073 381.653 L 169.073 323.701 C 173.786 346.875 185.558 364.675 204.114 373.031 C 249.098 393.282 316.916 350.343 355.59 277.124 C 368.426 252.825 376.438 228.245 379.77 205.507 L 379.77 381.653 Z" transform="matrix(1, 0, 0, 1, -69.888809, -52.599087)"></path>
	<path fill="var(--uno-yellow)" d="M 154.398 313.509 L 206.485 187.339 L 123.146 188.497 C 111.723 212.623 92.249 310.202 154.398 313.509 Z"></path>
	<path fill="var(--uno-green)" d="M 154.783 313.51 C 226.246 316.758 280.708 208.655 286.632 187.747 L 205.967 187.747 L 154.783 313.51 Z"></path>
	<path fill="var(--uno-red)" d="M 285.968 188.11 L 206.833 187.726 L 258.622 60.032 C 171.739 57.668 120.866 189.115 122.757 188.884 L 205.967 187.747 L 285.968 188.11 Z"></path>
	<path fill="var(--uno-blue)" d="M 287.511 187.726 C 287.63 187.752 322.202 71.943 258.622 60.032 L 205.967 187.747 L 286.632 187.747 L 287.511 187.726 Z"></path>
	<path fill="var(--uno-yellow)" d="M 114.289 76.146 L 122.131 57.153 L 109.585 57.327 C 107.866 60.959 104.934 75.649 114.289 76.146 Z"></path>
	<path fill="var(--uno-green)" d="M 114.347 76.146 C 125.106 76.635 133.304 60.362 134.196 57.215 L 122.053 57.215 L 114.347 76.146 Z"></path>
	<path fill="var(--uno-red)" d="M 134.097 57.27 L 122.183 57.211 L 129.979 37.989 C 116.9 37.632 109.242 57.421 109.527 57.384 L 122.053 57.215 L 134.097 57.27 Z"></path>
	<path fill="var(--uno-blue)" d="M 134.328 57.211 C 134.346 57.215 139.551 39.782 129.979 37.989 L 122.053 57.215 L 134.196 57.215 L 134.328 57.211 Z"></path>
	<path fill="var(--uno-yellow)" d="M 293.46 320.397 L 301.302 301.404 L 288.756 301.578 C 287.037 305.21 284.105 319.9 293.46 320.397 Z" transform="matrix(-1, 0, 0, -1, 588.229736, 621.800964)"></path>
	<path fill="var(--uno-green)" d="M 274.863 320.325 C 285.622 320.814 293.82 304.541 294.712 301.394 L 282.569 301.394 L 274.863 320.325 Z" transform="matrix(-1, 0, 0, -1, 569.575012, 621.729858)"></path>
	<path fill="var(--uno-red)" d="M 299.54 339.452 L 287.626 339.393 L 295.422 320.171 C 282.343 319.814 274.685 339.603 274.97 339.566 L 287.496 339.397 L 299.54 339.452 Z" transform="matrix(-1, 0, 0, -1, 574.502319, 659.7323)"></path>
	<path fill="var(--uno-blue)" d="M 285.577 339.557 C 285.595 339.561 290.8 322.128 281.228 320.335 L 273.302 339.561 L 285.445 339.561 L 285.577 339.557 Z" transform="matrix(-1, 0, 0, -1, 560.307739, 659.895996)"></path>
</svg>