<svg xmlns="http://www.w3.org/2000/svg" viewBox="149.397 65.304 250 350" width="250" height="350">
	<rect width="250" height="350" rx="25" ry="25" fill="var(--uno-card-background)" y="65.304" x="149.397"></rect>
	<path fill="currentColor" d="M 188.621 81.213 L 360.222 81.213 C 371.018 81.213 379.77 89.294 379.77 99.261 L 379.77 160.191 C 375.483 135.566 363.511 116.589 344.167 107.879 C 299.183 87.628 231.365 130.568 192.692 203.787 C 180.529 226.814 172.698 250.093 169.073 271.816 L 169.073 99.261 C 169.073 89.294 177.825 81.213 188.621 81.213 Z M 379.77 381.653 C 379.77 391.619 371.018 399.7 360.222 399.7 L 188.621 399.7 C 177.825 399.7 169.073 391.619 169.073 381.653 L 169.073 323.701 C 173.786 346.875 185.558 364.675 204.114 373.031 C 249.098 393.282 316.916 350.343 355.59 277.124 C 368.426 252.825 376.438 228.245 379.77 205.507 L 379.77 381.653 Z"></path>
	<path d="M 181.934 113.175 L 182.531 106.757 L 176.447 106.918 L 176.833 101.587 L 183.099 101.488 L 183.761 95.196 L 188.901 95.196 L 188.385 101.392 L 194.329 101.299 L 193.656 106.437 L 187.942 106.59 L 187.457 113.175 L 181.934 113.175 Z" fill="var(--uno-card-background)"></path>
	<path d="M 361.555 386.935 L 362.153 380.517 L 356.069 380.679 L 356.453 375.347 L 362.72 375.248 L 363.383 368.955 L 368.522 368.955 L 368.006 375.152 L 373.951 375.059 L 373.277 380.197 L 367.562 380.35 L 367.078 386.935 L 361.555 386.935 Z" fill="var(--uno-card-background)" transform="matrix(-1, 0, 0, -1, 730.019958, 755.890015)"></path>
	<path d="M 196.523 105.356 L 208.654 89.052 L 213.74 89.008 L 213.697 105.877 L 217.523 105.877 L 217.48 110.617 L 213.697 110.529 L 213.697 117.053 L 208.348 117.051 L 208.394 110.534 L 196.567 110.529 L 196.523 105.356 Z M 208.306 105.83 L 208.35 96.137 L 201.088 105.923 L 208.306 105.83 Z" fill="var(--uno-card-background)"></path>
	<path d="M 332.145 381.133 L 344.276 364.829 L 349.362 364.785 L 349.319 381.654 L 353.145 381.654 L 353.102 386.394 L 349.319 386.306 L 349.319 392.83 L 343.97 392.828 L 344.016 386.311 L 332.189 386.306 L 332.145 381.133 Z M 343.928 381.607 L 343.972 371.914 L 336.71 381.7 L 343.928 381.607 Z" fill="var(--uno-card-background)" transform="matrix(-1, 0, 0, -1, 685.289917, 757.61499)"></path>
	<rect x="191.93"  y="244.743" width="62.896" height="94.825" rx="10" ry="10" stroke="var(--uno-card-background)" stroke-width="2px" fill="var(--uno-green)" style=""></rect>
	<rect x="228.09"  y="187.918" width="62.896" height="94.825" rx="10" ry="10" stroke="var(--uno-card-background)" stroke-width="2px" fill="var(--uno-blue)" style=""></rect>
	<rect x="297.875" y="137.646" width="62.896" height="94.825" rx="10" ry="10" stroke="var(--uno-card-background)" stroke-width="2px" fill="var(--uno-yellow)" style=""></rect>
	<rect x="268.015" y="211.452" width="62.896" height="94.825" rx="10" ry="10" stroke="var(--uno-card-background)" stroke-width="2px" fill="var(--uno-red)" style=""></rect>
</svg>