<svg xmlns="http://www.w3.org/2000/svg" viewBox="122.062 75.374 250 350" width="250" height="350">
	<rect width="250" height="350" rx="25" ry="25" fill="var(--uno-card-background)" y="75.374" x="122.062"></rect>
	<path fill="currentColor" d="M 161.286 91.283 L 332.887 91.283 C 343.683 91.283 352.435 99.364 352.435 109.331 L 352.435 170.261 C 348.148 145.636 336.176 126.659 316.832 117.949 C 271.848 97.698 204.03 140.638 165.357 213.857 C 153.194 236.884 145.363 260.163 141.738 281.886 L 141.738 109.331 C 141.738 99.364 150.49 91.283 161.286 91.283 Z M 352.435 391.723 C 352.435 401.689 343.683 409.77 332.887 409.77 L 161.286 409.77 C 150.49 409.77 141.738 401.689 141.738 391.723 L 141.738 333.771 C 146.451 356.945 158.223 374.745 176.779 383.101 C 221.763 403.352 289.581 360.413 328.255 287.194 C 341.091 262.895 349.103 238.315 352.435 215.577 L 352.435 391.723 Z"></path>
	<path d="M 251.257 192.731 C 251.255 192.709 289.311 190.417 291.834 223.639 C 292.833 242.619 275.513 249.279 274.664 249.666 C 275.568 249.468 296.464 253.565 297.128 278.337 C 298.076 313.729 253.918 314.294 253.924 314.01 C 253.924 314.01 208.062 317.773 207.327 280.435 C 206.748 251.061 229.97 248.917 230.384 248.899 C 229.997 248.822 211.794 243.338 212.132 225.051 C 213.22 191.834 251.046 192.308 251.257 192.731 Z M 274.634 249.684 C 274.634 249.683 274.635 249.681 274.635 249.68 C 274.631 249.683 274.631 249.684 274.634 249.684 Z M 231.689 279.104 C 231.754 282.097 234.07 296.479 252.02 296.449 C 269.407 296.42 272.11 281.966 271.916 277.669 C 271.663 272.082 269.759 258.432 250.861 259.092 C 233.408 259.702 231.576 273.886 231.689 279.104 Z M 235.618 228.512 C 235.523 229.114 236.754 243.1 252.949 242.857 C 269.858 242.603 268.88 228.504 268.845 227.077 C 268.969 225.952 268.94 210.966 251.79 211.5 C 234.343 212.547 235.492 228.277 235.618 228.512 Z" fill="currentColor"></path>
	<path d="M 162.99 101.919 C 162.99 101.912 172.31 101.351 172.928 109.488 C 173.173 114.136 168.932 115.768 168.723 115.863 C 168.944 115.813 174.062 116.817 174.226 122.885 C 174.457 131.553 163.642 131.691 163.644 131.622 C 163.644 131.622 152.411 132.543 152.232 123.398 C 152.089 116.204 157.776 115.68 157.878 115.675 C 157.784 115.656 153.326 114.312 153.407 109.834 C 153.675 101.699 162.938 101.815 162.99 101.919 Z M 168.716 115.867 C 168.716 115.867 168.716 115.867 168.716 115.867 C 168.715 115.867 168.715 115.867 168.716 115.867 Z M 158.197 123.073 C 158.213 123.805 158.782 127.329 163.177 127.321 C 167.436 127.313 168.097 123.774 168.05 122.721 C 167.987 121.352 167.522 118.01 162.893 118.17 C 158.618 118.321 158.17 121.794 158.197 123.073 Z M 159.16 110.681 C 159.137 110.829 159.439 114.254 163.405 114.195 C 167.546 114.133 167.307 110.679 167.297 110.33 C 167.329 110.055 167.321 106.385 163.12 106.515 C 158.848 106.771 159.129 110.624 159.16 110.681 Z" fill="var(--uno-card-background)"></path>
	<path d="M 332.283 372.835 C 332.283 372.828 341.603 372.267 342.221 380.404 C 342.466 385.052 338.225 386.684 338.016 386.779 C 338.237 386.729 343.355 387.733 343.519 393.801 C 343.75 402.469 332.935 402.607 332.937 402.538 C 332.937 402.538 321.704 403.459 321.525 394.314 C 321.382 387.12 327.069 386.596 327.171 386.591 C 327.077 386.572 322.619 385.228 322.7 380.75 C 322.968 372.615 332.231 372.731 332.283 372.835 Z M 338.009 386.783 C 338.009 386.783 338.009 386.783 338.009 386.783 C 338.008 386.783 338.008 386.783 338.009 386.783 Z M 327.49 393.989 C 327.506 394.721 328.075 398.245 332.47 398.237 C 336.729 398.229 337.39 394.69 337.343 393.637 C 337.28 392.268 336.815 388.926 332.186 389.086 C 327.911 389.237 327.463 392.71 327.49 393.989 Z M 328.453 381.597 C 328.43 381.745 328.732 385.17 332.698 385.111 C 336.839 385.049 336.6 381.595 336.59 381.246 C 336.622 380.971 336.614 377.301 332.413 377.431 C 328.141 377.687 328.422 381.54 328.453 381.597 Z" fill="var(--uno-card-background)" transform="matrix(-1, 0, 0, -1, 665.044983, 775.375061)"></path>
</svg>