<svg xmlns="http://www.w3.org/2000/svg" viewBox="122.062 75.374 250 350" width="250" height="350">
	<rect width="250" height="350" rx="25" ry="25" fill="var(--uno-card-background)" y="75.374" x="122.062"></rect>
	<path fill="currentColor" d="M 161.286 91.283 L 332.887 91.283 C 343.683 91.283 352.435 99.364 352.435 109.331 L 352.435 170.261 C 348.148 145.636 336.176 126.659 316.832 117.949 C 271.848 97.698 204.03 140.638 165.357 213.857 C 153.194 236.884 145.363 260.163 141.738 281.886 L 141.738 109.331 C 141.738 99.364 150.49 91.283 161.286 91.283 Z M 352.435 391.723 C 352.435 401.689 343.683 409.77 332.887 409.77 L 161.286 409.77 C 150.49 409.77 141.738 401.689 141.738 391.723 L 141.738 333.771 C 146.451 356.945 158.223 374.745 176.779 383.101 C 221.763 403.352 289.581 360.413 328.255 287.194 C 341.091 262.895 349.103 238.315 352.435 215.577 L 352.435 391.723 Z"></path>
	<path d="M 209.66 214.85 L 209.66 191.747 L 295.66 191.414 L 295.66 213.353 C 264.146 245.062 254.912 286.432 254.039 316.073 L 228.345 315.906 C 228.827 285.989 237.379 247.189 268.832 215.016 L 209.66 214.85 Z" fill="currentColor"></path>
	<path d="M 152.155 107.286 L 152.155 101.644 L 173.155 101.563 L 173.155 106.921 C 165.459 114.663 163.205 124.765 162.992 132.003 L 156.718 131.962 C 156.835 124.656 158.924 115.182 166.604 107.326 L 152.155 107.286 Z" fill="var(--uno-card-background)"></path>
	<path d="M 320.506 377.45 L 320.506 371.808 L 341.506 371.727 L 341.506 377.085 C 333.81 384.827 331.556 394.929 331.343 402.167 L 325.069 402.126 C 325.186 394.82 327.275 385.346 334.955 377.49 L 320.506 377.45 Z" fill="var(--uno-card-background)" transform="matrix(-1, 0, 0, -1, 662.012024, 773.893982)"></path>
</svg>