<svg xmlns="http://www.w3.org/2000/svg" viewBox="144.897 43.974 250 350" width="250" height="350">
	<rect width="250" height="350" rx="25" ry="25" fill="var(--uno-card-background)" y="43.974" x="144.897"></rect>
	<path fill="currentColor" d="M 184.121 59.883 L 355.722 59.883 C 366.518 59.883 375.27 67.964 375.27 77.931 L 375.27 138.861 C 370.983 114.236 359.011 95.259 339.667 86.549 C 294.683 66.298 226.865 109.238 188.192 182.457 C 176.029 205.484 168.198 228.763 164.573 250.486 L 164.573 77.931 C 164.573 67.964 173.325 59.883 184.121 59.883 Z M 375.27 360.323 C 375.27 370.289 366.518 378.37 355.722 378.37 L 184.121 378.37 C 173.325 378.37 164.573 370.289 164.573 360.323 L 164.573 302.371 C 169.286 325.545 181.058 343.345 199.614 351.701 C 244.598 371.952 312.416 329.013 351.09 255.794 C 363.926 231.495 371.938 206.915 375.27 184.177 L 375.27 360.323 Z"></path>
	<path d="M 289.896 257.256 C 309.659 240.785 315.336 212.158 307.242 200.066 L 234.469 262.938 C 234.173 263.163 257.431 281.804 289.896 257.256 Z M 220.625 270.79 C 197.172 249.757 199.802 212.553 224.521 185.811 C 249.241 159.076 288.347 155.035 311.342 176.797 C 334.339 198.559 332.248 237.612 307.803 264.608 C 283.352 291.611 244.078 291.815 220.625 270.79 Z M 224.287 248.309 L 297.743 186.631 C 283.669 175.113 260.242 178.642 243.041 191.316 C 225.517 204.223 214.711 234.453 224.287 248.309 Z" fill="currentColor"></path>
	<path d="M 359.957 363.578 C 365.902 358.624 367.61 350.012 365.175 346.375 L 343.285 365.288 C 343.195 365.355 350.191 370.963 359.957 363.578 Z M 339.12 367.65 C 332.064 361.323 332.855 350.131 340.291 342.087 C 347.727 334.044 359.492 332.829 366.409 339.375 C 373.326 345.922 372.697 357.67 365.344 365.79 C 357.989 373.913 346.174 373.974 339.12 367.65 Z M 340.221 360.887 L 362.318 342.333 C 358.084 338.869 351.037 339.93 345.862 343.743 C 340.591 347.625 337.341 356.719 340.221 360.887 Z" fill="var(--uno-card-background)"></path>
	<path d="M 359.957 363.578 C 365.902 358.624 367.61 350.012 365.175 346.375 L 343.285 365.288 C 343.195 365.355 350.191 370.963 359.957 363.578 Z M 339.12 367.65 C 332.064 361.323 332.855 350.131 340.291 342.087 C 347.727 334.044 359.492 332.829 366.409 339.375 C 373.326 345.922 372.697 357.67 365.344 365.79 C 357.989 373.913 346.174 373.974 339.12 367.65 Z M 340.221 360.887 L 362.318 342.333 C 358.084 338.869 351.037 339.93 345.862 343.743 C 340.591 347.625 337.341 356.719 340.221 360.887 Z" fill="var(--uno-card-background)" transform="matrix(1, 0, 0, 1, -165.533722, -267.38562)"></path>
</svg>