<svg xmlns="http://www.w3.org/2000/svg" viewBox="118.6 62.811 250 350" width="250" height="350">
    <rect width="250" height="350" rx="25" ry="25" fill="var(--uno-card-background)" y="62.811" x="118.6"></rect>
    <path fill="currentColor" d="M 157.824 78.72 L 329.425 78.72 C 340.221 78.72 348.973 86.801 348.973 96.768 L 348.973 157.698 C 344.686 133.073 332.714 114.096 313.37 105.386 C 268.386 85.135 200.568 128.075 161.895 201.294 C 149.732 224.321 141.901 247.6 138.276 269.323 L 138.276 96.768 C 138.276 86.801 147.028 78.72 157.824 78.72 Z M 348.973 379.16 C 348.973 389.126 340.221 397.207 329.425 397.207 L 157.824 397.207 C 147.028 397.207 138.276 389.126 138.276 379.16 L 138.276 321.208 C 142.989 344.382 154.761 362.182 173.317 370.538 C 218.301 390.789 286.119 347.85 324.793 274.631 C 337.629 250.332 345.641 225.752 348.973 203.014 L 348.973 379.16 Z"></path>
    <path d="M 226.875 218.859 L 206.69 218.9 C 204.094 196.676 226.099 178.563 250.141 178.498 C 274.024 178.433 284.935 198.261 281.651 218.186 C 278.04 240.09 237.365 282.727 237.365 282.338 L 281.922 281.1 L 281.693 302.497 L 205.223 303.251 L 205.239 282.903 C 205.238 282.905 254.076 231.578 257.484 217.285 C 260.738 199.131 235.647 192.542 226.875 218.859 Z" fill="currentColor"></path>
    <path d="M 155.774 98.539 L 150.007 98.55 C 149.265 92.201 155.553 87.025 162.422 87.007 C 169.246 86.989 172.365 92.653 171.424 98.346 C 170.393 104.605 158.772 116.786 158.772 116.676 L 171.502 116.322 L 171.437 122.436 L 149.588 122.651 L 149.592 116.838 C 149.592 116.838 163.546 102.174 164.522 98.091 C 165.449 92.902 158.281 91.019 155.774 98.539 Z" fill="var(--uno-card-background)"></path>
    <path d="M 321.682 364.996 L 315.915 365.007 C 315.173 358.658 321.461 353.482 328.33 353.464 C 335.154 353.446 338.273 359.11 337.332 364.803 C 336.301 371.062 324.68 383.243 324.68 383.133 L 337.41 382.779 L 337.345 388.893 L 315.496 389.108 L 315.5 383.295 C 315.5 383.295 329.454 368.631 330.43 364.548 C 331.357 359.359 324.189 357.476 321.682 364.996 Z" fill="var(--uno-card-background)" transform="matrix(-1, 0, 0, -1, 652.992111, 742.571943)"></path>
</svg>