<svg xmlns="http://www.w3.org/2000/svg" viewBox="122.845 64.465 250 350" width="250" height="350">
	<rect width="250" height="350" rx="25" ry="25" fill="var(--uno-card-background)" y="64.465" x="122.845"></rect>
	<path fill="currentColor" d="M 162.069 80.374 L 333.67 80.374 C 344.466 80.374 353.218 88.455 353.218 98.422 L 353.218 159.352 C 348.931 134.727 336.959 115.75 317.615 107.04 C 272.631 86.789 204.813 129.729 166.14 202.948 C 153.977 225.975 146.146 249.254 142.521 270.977 L 142.521 98.422 C 142.521 88.455 151.273 80.374 162.069 80.374 Z M 353.218 380.814 C 353.218 390.78 344.466 398.861 333.67 398.861 L 162.069 398.861 C 151.273 398.861 142.521 390.78 142.521 380.814 L 142.521 322.862 C 147.234 346.036 159.006 363.836 177.562 372.192 C 222.546 392.443 290.364 349.504 329.038 276.285 C 341.874 251.986 349.886 227.406 353.218 204.668 L 353.218 380.814 Z"></path>
	<path d="M 172.664 96.99 L 167.884 96.998 C 167.268 91.737 172.481 87.446 178.175 87.431 C 183.831 87.416 186.417 92.111 185.637 96.83 C 184.782 102.018 175.149 112.116 175.149 112.025 L 185.701 111.732 L 185.648 116.799 L 167.537 116.977 L 167.539 112.158 C 167.539 112.158 179.106 100.003 179.915 96.619 C 180.684 92.318 174.741 90.757 172.664 96.99 Z" fill="var(--uno-card-background)"></path>
	<path d="M 315.711 373.189 L 310.931 373.199 C 310.316 367.935 315.528 363.646 321.222 363.631 C 326.879 363.616 329.463 368.311 328.684 373.03 C 327.829 378.218 318.196 388.315 318.196 388.223 L 328.748 387.93 L 328.695 392.998 L 310.583 393.177 L 310.587 388.358 C 310.587 388.358 322.154 376.203 322.963 372.819 C 323.731 368.518 317.789 366.956 315.711 373.189 Z" fill="var(--uno-card-background)" transform="matrix(-1, 0, 0, -1, 639.402771, 756.807983)"></path>
	<path d="M 155.382 112.336 L 155.979 105.918 L 149.895 106.079 L 150.281 100.748 L 156.547 100.649 L 157.209 94.357 L 162.349 94.357 L 161.833 100.553 L 167.777 100.46 L 167.104 105.598 L 161.39 105.751 L 160.905 112.336 L 155.382 112.336 Z" fill="var(--uno-card-background)"></path>
	<path d="M 335.003 386.096 L 335.601 379.678 L 329.517 379.84 L 329.901 374.508 L 336.168 374.409 L 336.831 368.116 L 341.97 368.116 L 341.454 374.313 L 347.399 374.22 L 346.725 379.358 L 341.01 379.511 L 340.526 386.096 L 335.003 386.096 Z" fill="var(--uno-card-background)" transform="matrix(-1, 0, 0, -1, 676.915955, 754.212036)"></path>
	<rect x="229.708" y="170.741" width="62.896" height="94.825" rx="10" ry="10" stroke="var(--uno-card-background)" stroke-width="4px" fill="currentColor" style=""></rect>
	<rect x="199.746" y="217.425" width="62.896" height="94.825" rx="10" ry="10" stroke="var(--uno-card-background)" stroke-width="4px" fill="currentColor" style=""></rect>
</svg>