<svg xmlns="http://www.w3.org/2000/svg" viewBox="41.803 118.033 250 350" width="250" height="350">
	<rect width="250" height="350" rx="25" ry="25" fill="var(--uno-card-background)" y="10" x="10" transform="matrix(1, 0, 0, 1, 31.803274, 108.032776)"></rect>
	<path fill="currentColor" d="M 172.605 254.849 L 150.623 242.341 L 205.803 232.216 L 206.507 286.683 L 188.658 267.896 L 154.772 307.217 C 152.737 310.149 137.777 294.954 153.563 278.466 L 173.593 255.43 L 172.605 254.849 Z M 161.159 334.582 L 183.141 347.091 L 127.961 357.216 L 127.257 302.749 L 145.106 321.536 L 178.994 282.215 C 181.027 279.283 195.987 294.478 180.201 310.966 L 160.171 334.002 L 161.159 334.582 Z"></path>
	<path fill="currentColor" d="M 49.224 25.909 L 220.825 25.909 C 231.621 25.909 240.373 33.99 240.373 43.957 L 240.373 104.887 C 236.086 80.262 224.114 61.285 204.77 52.575 C 159.786 32.324 91.968 75.264 53.295 148.483 C 41.132 171.51 33.301 194.789 29.676 216.512 L 29.676 43.957 C 29.676 33.99 38.428 25.909 49.224 25.909 Z M 240.373 326.349 C 240.373 336.315 231.621 344.396 220.825 344.396 L 49.224 344.396 C 38.428 344.396 29.676 336.315 29.676 326.349 L 29.676 268.397 C 34.389 291.571 46.161 309.371 64.717 317.727 C 109.701 337.978 177.519 295.039 216.193 221.82 C 229.029 197.521 237.041 172.941 240.373 150.203 L 240.373 326.349 Z" transform="matrix(1, 0, 0, 1, 31.803274, 108.032776)"></path>
	<path fill="var(--uno-card-background)" d="M 250.704 415.614 L 244.326 411.985 L 260.34 409.046 L 260.544 424.853 L 255.364 419.402 L 245.529 430.813 C 244.938 431.664 240.598 427.253 245.179 422.469 L 250.991 415.783 L 250.704 415.614 Z M 247.384 438.754 L 253.762 442.384 L 237.748 445.323 L 237.544 429.516 L 242.725 434.968 L 252.559 423.556 C 253.149 422.705 257.491 427.116 252.909 431.9 L 247.097 438.586 L 247.384 438.754 Z"></path>
	<path fill="var(--uno-card-background)" d="M 86.201 149.872 L 79.823 146.243 L 95.837 143.304 L 96.041 159.111 L 90.861 153.66 L 81.026 165.071 C 80.435 165.922 76.095 161.511 80.676 156.727 L 86.488 150.041 L 86.201 149.872 Z M 82.881 173.012 L 89.259 176.642 L 73.245 179.581 L 73.041 163.774 L 78.222 169.226 L 88.056 157.814 C 88.646 156.963 92.988 161.374 88.406 166.158 L 82.594 172.844 L 82.881 173.012 Z"></path>
</svg>
