<svg xmlns="http://www.w3.org/2000/svg" viewBox="122.062 75.374 250 350" width="250" height="350">
	<rect width="250" height="350" rx="25" ry="25" fill="var(--uno-card-background)" y="75.374" x="122.062"></rect>
	<path fill="currentColor" d="M 161.286 91.283 L 332.887 91.283 C 343.683 91.283 352.435 99.364 352.435 109.331 L 352.435 170.261 C 348.148 145.636 336.176 126.659 316.832 117.949 C 271.848 97.698 204.03 140.638 165.357 213.857 C 153.194 236.884 145.363 260.163 141.738 281.886 L 141.738 109.331 C 141.738 99.364 150.49 91.283 161.286 91.283 Z M 352.435 391.723 C 352.435 401.689 343.683 409.77 332.887 409.77 L 161.286 409.77 C 150.49 409.77 141.738 401.689 141.738 391.723 L 141.738 333.771 C 146.451 356.945 158.223 374.745 176.779 383.101 C 221.763 403.352 289.581 360.413 328.255 287.194 C 341.091 262.895 349.103 238.315 352.435 215.577 L 352.435 391.723 Z"></path>
	<path d="M 207.882 233.736 C 208.624 215.451 217.426 195.522 245.173 195.662 C 274.11 195.623 284.238 210.342 284.089 226.057 C 283.967 239.107 279.074 245.094 270.569 250.42 C 280.685 254.044 287.043 261.549 286.496 279.027 C 286.496 298.254 275.922 313.88 247.831 314.53 C 214.432 315.303 204.938 293.107 204.529 273.051 L 225.962 272.609 C 226.194 298.823 252.784 300.052 260.841 291.174 C 270.386 280.661 269.619 259.089 237.644 260.164 L 238.129 243.332 C 267.681 244.601 265.881 226.976 258.658 217.617 C 251.576 208.439 228.659 211.189 228.785 233.544 L 207.882 233.736 Z" fill="currentColor"></path>
	<path d="M 154.048 112.048 C 154.247 107.142 156.609 101.794 164.054 101.832 C 171.817 101.822 174.535 105.771 174.495 109.987 C 174.462 113.488 173.15 115.095 170.867 116.524 C 173.581 117.496 175.287 119.51 175.14 124.199 C 175.14 129.358 172.303 133.551 164.766 133.725 C 155.806 133.932 153.258 127.977 153.149 122.595 L 158.9 122.477 C 158.961 129.51 166.096 129.84 168.257 127.459 C 170.819 124.637 170.612 118.85 162.033 119.138 L 162.164 114.622 C 170.093 114.962 169.61 110.234 167.672 107.723 C 165.771 105.26 159.622 105.999 159.657 111.996 L 154.048 112.048 Z" fill="var(--uno-card-background)"></path>
	<path d="M 318.643 377.764 C 318.842 372.858 321.204 367.51 328.649 367.548 C 336.412 367.538 339.13 371.487 339.09 375.703 C 339.057 379.204 337.745 380.811 335.462 382.24 C 338.176 383.212 339.882 385.226 339.735 389.915 C 339.735 395.074 336.898 399.267 329.361 399.441 C 320.401 399.648 317.853 393.693 317.744 388.311 L 323.495 388.193 C 323.556 395.226 330.691 395.556 332.852 393.175 C 335.414 390.353 335.207 384.566 326.628 384.854 L 326.759 380.338 C 334.688 380.678 334.205 375.95 332.267 373.439 C 330.366 370.976 324.217 371.715 324.252 377.712 L 318.643 377.764 Z" transform="matrix(-1, 0, 0, -1, 657.487732, 766.994019)" fill="var(--uno-card-background)"></path>
</svg>