<svg xmlns="http://www.w3.org/2000/svg" viewBox="122.062 75.374 250 350" width="250" height="350">
	<rect width="250" height="350" rx="25" ry="25" fill="var(--uno-card-background)" y="75.374" x="122.062"></rect>
	<path fill="currentColor" d="M 161.286 91.283 L 332.887 91.283 C 343.683 91.283 352.435 99.364 352.435 109.331 L 352.435 170.261 C 348.148 145.636 336.176 126.659 316.832 117.949 C 271.848 97.698 204.03 140.638 165.357 213.857 C 153.194 236.884 145.363 260.163 141.738 281.886 L 141.738 109.331 C 141.738 99.364 150.49 91.283 161.286 91.283 Z M 352.435 391.723 C 352.435 401.689 343.683 409.77 332.887 409.77 L 161.286 409.77 C 150.49 409.77 141.738 401.689 141.738 391.723 L 141.738 333.771 C 146.451 356.945 158.223 374.745 176.779 383.101 C 221.763 403.352 289.581 360.413 328.255 287.194 C 341.091 262.895 349.103 238.315 352.435 215.577 L 352.435 391.723 Z"></path>
	<path d="M 213.78 304.999 L 286.359 304.999 L 286.359 319.952 L 213.78 319.952 L 213.78 304.999 Z M 231.712 271.257 C 235.629 285.304 245.366 285.353 248.226 284.889 C 266.711 281.931 267.998 253.127 268.062 251.244 C 267.629 252.377 259.787 263.1 242.963 263.7 C 207.656 262.439 208.327 228.204 208.327 228.204 C 208.428 227.871 206.245 186.356 249.305 185.555 C 291.212 187.519 290.275 238.216 290.287 241.701 C 290.337 244.669 292.938 301.942 245.662 302.029 C 210.088 300.649 210.316 271.389 210.436 271.393 L 231.712 271.257 Z M 247.751 246.375 C 265.933 246.61 266.443 228.874 266.015 224.955 C 266.275 220.296 263.283 204.44 248.068 204.606 C 231.259 204.786 230.683 224.573 230.87 227.6 C 231.04 231.543 232.685 246.179 247.751 246.375 Z" fill="currentColor"></path>
	<path d="M 152.943 131.498 L 171.53 131.498 L 171.53 135.328 L 152.943 135.328 L 152.943 131.498 Z M 157.535 122.858 C 158.537 126.454 161.031 126.467 161.764 126.348 C 166.498 125.59 166.828 118.214 166.844 117.731 C 166.733 118.022 164.724 120.767 160.416 120.922 C 151.373 120.598 151.546 111.83 151.546 111.83 C 151.572 111.745 151.011 101.113 162.04 100.908 C 172.773 101.411 172.533 114.395 172.536 115.287 C 172.549 116.048 173.215 130.716 161.107 130.738 C 151.997 130.383 152.055 122.89 152.085 122.891 L 157.535 122.858 Z M 161.643 116.484 C 166.299 116.544 166.429 112.003 166.32 110.999 C 166.386 109.805 165.62 105.745 161.723 105.787 C 157.419 105.833 157.271 110.9 157.319 111.676 C 157.362 112.686 157.784 116.434 161.643 116.484 Z" fill="var(--uno-card-background)"></path>
	<path d="M 323.464 400.668 L 342.051 400.668 L 342.051 404.498 L 323.464 404.498 L 323.464 400.668 Z M 328.056 392.028 C 329.058 395.624 331.552 395.637 332.285 395.518 C 337.019 394.76 337.349 387.384 337.365 386.901 C 337.254 387.192 335.245 389.937 330.937 390.092 C 321.894 389.768 322.067 381 322.067 381 C 322.093 380.915 321.532 370.283 332.561 370.078 C 343.294 370.581 343.054 383.565 343.057 384.457 C 343.07 385.218 343.736 399.886 331.628 399.908 C 322.518 399.553 322.576 392.06 322.606 392.061 L 328.056 392.028 Z M 332.164 385.654 C 336.82 385.714 336.95 381.173 336.841 380.169 C 336.907 378.975 336.141 374.915 332.244 374.957 C 327.94 375.003 327.792 380.07 327.84 380.846 C 327.883 381.856 328.305 385.604 332.164 385.654 Z" fill="var(--uno-card-background)" transform="matrix(-1, 0, 0, -1, 665.133911, 774.575989)"></path>
</svg>