<svg xmlns="http://www.w3.org/2000/svg" viewBox="122.062 75.374 250 350" width="250" height="350">
	<rect width="250" height="350" rx="25" ry="25" fill="var(--uno-card-background)" y="75.374" x="122.062"></rect>
	<path fill="currentColor" d="M 161.286 91.283 L 332.887 91.283 C 343.683 91.283 352.435 99.364 352.435 109.331 L 352.435 170.261 C 348.148 145.636 336.176 126.659 316.832 117.949 C 271.848 97.698 204.03 140.638 165.357 213.857 C 153.194 236.884 145.363 260.163 141.738 281.886 L 141.738 109.331 C 141.738 99.364 150.49 91.283 161.286 91.283 Z M 352.435 391.723 C 352.435 401.689 343.683 409.77 332.887 409.77 L 161.286 409.77 C 150.49 409.77 141.738 401.689 141.738 391.723 L 141.738 333.771 C 146.451 356.945 158.223 374.745 176.779 383.101 C 221.763 403.352 289.581 360.413 328.255 287.194 C 341.091 262.895 349.103 238.315 352.435 215.577 L 352.435 391.723 Z"></path>
	<path d="M 211.927 305.404 L 285.391 305.404 L 285.391 320.54 L 211.927 320.54 L 211.927 305.404 Z M 265.735 215.653 C 261.77 201.434 251.915 201.385 249.02 201.854 C 230.31 204.848 229.007 234.004 228.942 235.909 C 229.38 234.763 237.318 223.909 254.347 223.302 C 290.084 224.578 289.405 259.23 289.405 259.23 C 289.303 259.567 291.513 301.588 247.928 302.399 C 205.51 300.411 206.458 249.096 206.447 245.569 C 206.395 242.565 203.763 184.593 251.615 184.505 C 287.622 185.903 287.391 215.519 287.271 215.515 L 265.735 215.653 Z M 249.501 240.838 C 231.098 240.6 230.581 258.552 231.015 262.518 C 230.751 267.235 233.779 283.284 249.18 283.116 C 266.194 282.934 266.777 262.906 266.587 259.842 C 266.415 255.851 264.75 241.036 249.501 240.838 Z" fill="currentColor"></path>
	<path d="M 153.523 131.268 L 172.111 131.268 L 172.111 135.098 L 153.523 135.098 L 153.523 131.268 Z M 167.138 108.56 C 166.134 104.962 163.641 104.95 162.909 105.069 C 158.175 105.827 157.845 113.203 157.828 113.685 C 157.94 113.395 159.948 110.649 164.256 110.496 C 173.298 110.819 173.126 119.586 173.126 119.586 C 173.101 119.671 173.66 130.303 162.632 130.508 C 151.899 130.005 152.139 117.021 152.137 116.129 C 152.123 115.369 151.458 100.701 163.565 100.679 C 172.675 101.033 172.617 108.526 172.586 108.525 L 167.138 108.56 Z M 163.03 114.932 C 158.374 114.872 158.243 119.414 158.353 120.417 C 158.286 121.611 159.053 125.672 162.949 125.63 C 167.253 125.583 167.401 120.516 167.353 119.74 C 167.31 118.731 166.888 114.983 163.03 114.932 Z" fill="var(--uno-card-background)"></path>
	<path d="M 321.697 398.61 L 340.285 398.61 L 340.285 402.44 L 321.697 402.44 L 321.697 398.61 Z M 335.312 375.902 C 334.308 372.304 331.815 372.292 331.083 372.411 C 326.349 373.169 326.019 380.545 326.002 381.027 C 326.114 380.737 328.122 377.991 332.43 377.838 C 341.472 378.161 341.3 386.928 341.3 386.928 C 341.275 387.013 341.834 397.645 330.806 397.85 C 320.073 397.347 320.313 384.363 320.311 383.471 C 320.297 382.711 319.632 368.043 331.739 368.021 C 340.849 368.375 340.791 375.868 340.76 375.867 L 335.312 375.902 Z M 331.204 382.274 C 326.548 382.214 326.417 386.756 326.527 387.759 C 326.46 388.953 327.227 393.014 331.123 392.972 C 335.427 392.925 335.575 387.858 335.527 387.082 C 335.484 386.073 335.062 382.325 331.204 382.274 Z" fill="var(--uno-card-background)" transform="matrix(-1, 0, 0, -1, 661.60083, 770.460999)"></path>
</svg>