<svg viewBox="68.033 91.393 250 350" width="250" height="350">
<rect width="250" height="350" rx="25" ry="25" fill="var(--uno-card-background)" y="91.393" x="68.033"></rect>
	<path fill="currentColor" d="M 107.257 107.302 L 278.858 107.302 C 289.654 107.302 298.406 115.383 298.406 125.35 L 298.406 186.28 C 294.119 161.655 282.147 142.678 262.803 133.968 C 217.819 113.717 150.001 156.657 111.328 229.876 C 99.165 252.903 91.334 276.182 87.709 297.905 L 87.709 125.35 C 87.709 115.383 96.461 107.302 107.257 107.302 Z M 298.406 407.742 C 298.406 417.708 289.654 425.789 278.858 425.789 L 107.257 425.789 C 96.461 425.789 87.709 417.708 87.709 407.742 L 87.709 349.79 C 92.422 372.964 104.194 390.764 122.75 399.12 C 167.734 419.371 235.552 376.432 274.226 303.213 C 287.062 278.914 295.074 254.334 298.406 231.596 L 298.406 407.742 Z"></path>
	<path d="M 117.852 123.918 L 113.072 123.926 C 112.456 118.665 117.669 114.374 123.363 114.359 C 129.019 114.344 131.605 119.039 130.825 123.758 C 129.97 128.946 120.337 139.044 120.337 138.953 L 130.889 138.66 L 130.836 143.727 L 112.725 143.905 L 112.727 139.086 C 112.727 139.086 124.294 126.931 125.103 123.547 C 125.872 119.246 119.929 117.685 117.852 123.918 Z" fill="var(--uno-card-background)"></path>
	<path d="M 260.899 401.117 L 256.119 401.127 C 255.504 395.863 260.716 391.574 266.41 391.559 C 272.067 391.544 274.651 396.239 273.872 400.958 C 273.017 406.146 263.384 416.243 263.384 416.151 L 273.936 415.858 L 273.883 420.926 L 255.771 421.105 L 255.775 416.286 C 255.775 416.286 267.342 404.131 268.151 400.747 C 268.919 396.446 262.977 394.884 260.899 401.117 Z" fill="var(--uno-card-background)" transform="matrix(-1, 0, 0, -1, 529.778809, 812.664001)"></path>
	<path d="M 100.57 139.264 L 101.167 132.846 L 95.083 133.007 L 95.469 127.676 L 101.735 127.577 L 102.397 121.285 L 107.537 121.285 L 107.021 127.481 L 112.965 127.388 L 112.292 132.526 L 106.578 132.679 L 106.093 139.264 L 100.57 139.264 Z"></path>
	<path d="M 280.191 414.024 L 280.789 407.606 L 274.705 407.768 L 275.089 402.436 L 281.356 402.337 L 282.019 396.044 L 287.158 396.044 L 286.642 402.241 L 292.587 402.148 L 291.913 407.286 L 286.198 407.439 L 285.714 414.024 L 280.191 414.024 Z" transform="matrix(-1, 0, 0, -1, 567.291992, 810.067993)"></path>
	<rect x="178.985" y="195.066" width="54.949" height="94.197" rx="5" ry="5" stroke="var(--uno-card-background)" stroke-width="4px" fill="currentColor"></rect>
	<rect x="152.934" y="244.353" width="59.344" height="94.825" rx="5" ry="5" stroke="var(--uno-card-background)" stroke-width="4px" fill="currentColor"></rect>
</svg>