<svg xmlns="http://www.w3.org/2000/svg" viewBox="118.6 62.811 250 350" width="250" height="350">
    <rect width="250" height="350" rx="25" ry="25" fill="var(--uno-card-background)" y="62.811" x="118.6"></rect>
    <path fill="currentColor" d="M 157.824 78.72 L 329.425 78.72 C 340.221 78.72 348.973 86.801 348.973 96.768 L 348.973 157.698 C 344.686 133.073 332.714 114.096 313.37 105.386 C 268.386 85.135 200.568 128.075 161.895 201.294 C 149.732 224.321 141.901 247.6 138.276 269.323 L 138.276 96.768 C 138.276 86.801 147.028 78.72 157.824 78.72 Z M 348.973 379.16 C 348.973 389.126 340.221 397.207 329.425 397.207 L 157.824 397.207 C 147.028 397.207 138.276 389.126 138.276 379.16 L 138.276 321.208 C 142.989 344.382 154.761 362.182 173.317 370.538 C 218.301 390.789 286.119 347.85 324.793 274.631 C 337.629 250.332 345.641 225.752 348.973 203.014 L 348.973 379.16 Z"></path>
    <path d="M 206.11 225.299 L 206.673 202.187 C 233.624 200.549 237.658 195.016 239.287 177.123 L 266.541 177.732 L 267.103 303.516 L 238.802 304.078 L 239.021 224.471 L 206.11 225.299 Z" fill="currentColor"></path>
    <path d="M 148.188 100.355 L 148.354 93.534 C 156.309 93.051 157.498 91.418 157.979 86.138 L 166.022 86.317 L 166.188 123.438 L 157.836 123.604 L 157.901 100.11 L 148.188 100.355 Z" fill="var(--uno-card-background)"></path>
    <path d="M 318.704 366.736 L 318.87 359.915 C 326.825 359.432 328.014 357.799 328.495 352.519 L 336.538 352.698 L 336.704 389.819 L 328.352 389.985 L 328.417 366.491 L 318.704 366.736 Z" fill="var(--uno-card-background)" transform="matrix(-1, 0, 0, -1, 655.408005, 742.504011)"></path>
</svg>