<svg xmlns="http://www.w3.org/2000/svg" viewBox="122.062 75.374 250 350" width="250" height="350">
	<rect width="250" height="350" rx="25" ry="25" fill="var(--uno-card-background)" y="75.374" x="122.062"></rect>
	<path fill="currentColor" d="M 161.286 91.283 L 332.887 91.283 C 343.683 91.283 352.435 99.364 352.435 109.331 L 352.435 170.261 C 348.148 145.636 336.176 126.659 316.832 117.949 C 271.848 97.698 204.03 140.638 165.357 213.857 C 153.194 236.884 145.363 260.163 141.738 281.886 L 141.738 109.331 C 141.738 99.364 150.49 91.283 161.286 91.283 Z M 352.435 391.723 C 352.435 401.689 343.683 409.77 332.887 409.77 L 161.286 409.77 C 150.49 409.77 141.738 401.689 141.738 391.723 L 141.738 333.771 C 146.451 356.945 158.223 374.745 176.779 383.101 C 221.763 403.352 289.581 360.413 328.255 287.194 C 341.091 262.895 349.103 238.315 352.435 215.577 L 352.435 391.723 Z"></path>
	<path d="M 199.465 261.33 L 250.875 192.23 L 272.434 192.046 L 272.25 263.541 L 288.465 263.541 L 288.281 283.626 L 272.25 283.257 L 272.25 310.905 L 249.577 310.897 L 249.778 283.274 L 199.649 283.257 L 199.465 261.33 Z M 249.401 263.34 L 249.585 222.265 L 218.813 263.734 L 249.401 263.34 Z" fill="currentColor"></path>
	<path d="M 152.016 119.8 L 165.302 101.943 L 170.873 101.895 L 170.826 120.371 L 175.016 120.371 L 174.969 125.562 L 170.826 125.466 L 170.826 132.611 L 164.967 132.609 L 165.018 125.471 L 152.064 125.466 L 152.016 119.8 Z M 164.921 120.319 L 164.969 109.703 L 157.016 120.421 L 164.921 120.319 Z" fill="var(--uno-card-background)"></path>
	<path d="M 320.181 388.237 L 333.467 370.38 L 339.038 370.332 L 338.991 388.808 L 343.181 388.808 L 343.134 393.999 L 338.991 393.903 L 338.991 401.048 L 333.132 401.046 L 333.183 393.908 L 320.229 393.903 L 320.181 388.237 Z M 333.086 388.756 L 333.134 378.14 L 325.181 388.858 L 333.086 388.756 Z" fill="var(--uno-card-background)" transform="matrix(-1, 0, 0, -1, 663.362, 771.380005)"></path>
</svg>