<svg xmlns="http://www.w3.org/2000/svg" viewBox="122.062 75.374 250 350" width="250" height="350">
	<rect width="250" height="350" rx="25" ry="25" fill="var(--uno-card-background)" y="75.374" x="122.062"></rect>
	<path fill="currentColor" d="M 161.286 91.283 L 332.887 91.283 C 343.683 91.283 352.435 99.364 352.435 109.331 L 352.435 170.261 C 348.148 145.636 336.176 126.659 316.832 117.949 C 271.848 97.698 204.03 140.638 165.357 213.857 C 153.194 236.884 145.363 260.163 141.738 281.886 L 141.738 109.331 C 141.738 99.364 150.49 91.283 161.286 91.283 Z M 352.435 391.723 C 352.435 401.689 343.683 409.77 332.887 409.77 L 161.286 409.77 C 150.49 409.77 141.738 401.689 141.738 391.723 L 141.738 333.771 C 146.451 356.945 158.223 374.745 176.779 383.101 C 221.763 403.352 289.581 360.413 328.255 287.194 C 341.091 262.895 349.103 238.315 352.435 215.577 L 352.435 391.723 Z"></path>
	<path d="M 283.823 216.477 L 284.307 196.679 L 218.011 196.404 L 206.919 262.458 L 227.652 262.217 C 229.778 259.164 239.626 249.918 249.888 253.059 C 278.202 261.726 264.197 297.927 245.855 296.316 C 229.189 294.852 227.182 278.438 227.266 278.596 L 203.533 278.596 C 206.066 303.677 226.807 315.229 246.58 316.388 C 274.489 315.991 289.211 294.477 289.078 272.341 C 288.978 255.707 282.578 239.787 259.43 234.647 C 243.385 231.084 232.575 241.078 232.586 241.079 L 236.181 216.719 L 283.823 216.477 Z" fill="currentColor"></path>
	<path d="M 171.92 107.644 L 172.044 102.553 L 154.995 102.482 L 152.143 119.469 L 157.475 119.408 C 158.02 118.622 160.554 116.244 163.193 117.051 C 170.474 119.281 166.873 128.59 162.155 128.177 C 157.87 127.799 157.353 123.579 157.375 123.619 L 151.272 123.619 C 151.923 130.07 157.257 133.041 162.342 133.339 C 169.52 133.237 173.306 127.704 173.272 122.01 C 173.245 117.733 171.6 113.639 165.647 112.318 C 161.521 111.401 158.741 113.97 158.743 113.971 L 159.668 107.707 L 171.92 107.644 Z" fill="var(--uno-card-background)"></path>
	<path d="M 340.825 373.839 L 340.949 368.748 L 323.9 368.677 L 321.048 385.664 L 326.38 385.603 C 326.925 384.817 329.459 382.439 332.098 383.246 C 339.379 385.476 335.778 394.785 331.06 394.372 C 326.775 393.994 326.258 389.774 326.28 389.814 L 320.177 389.814 C 320.828 396.265 326.162 399.236 331.247 399.534 C 338.425 399.432 342.211 393.899 342.177 388.205 C 342.15 383.928 340.505 379.834 334.552 378.513 C 330.426 377.596 327.646 380.165 327.648 380.166 L 328.573 373.902 L 340.825 373.839 Z" fill="var(--uno-card-background)" transform="matrix(-1, 0, 0, -1, 662.354187, 768.210999)"></path>
</svg>