<svg xmlns="http://www.w3.org/2000/svg" viewBox="10 10 100 100" width="100" height="100">
	<path d="M 79.488 86.803 C 95.556 73.412 100.171 50.138 93.591 40.307 L 34.426 91.422 C 34.185 91.605 53.094 106.761 79.488 86.803 Z M 23.17 97.806 C 4.103 80.706 6.241 50.459 26.338 28.717 C 46.435 6.981 78.229 3.696 96.924 21.389 C 115.621 39.081 113.921 70.832 94.047 92.78 C 74.168 114.733 42.238 114.899 23.17 97.806 Z M 26.147 79.529 L 85.868 29.384 C 74.426 20.02 55.379 22.889 41.394 33.193 C 27.147 43.686 18.362 68.263 26.147 79.529 Z"/>
</svg>